<?xml version="1.0" standalone="no"?>
<!DOCTYPE svg PUBLIC "-//W3C//DTD SVG 20010904//EN"
 "http://www.w3.org/TR/2001/REC-SVG-20010904/DTD/svg10.dtd">
<svg version="1.0" xmlns="http://www.w3.org/2000/svg"
 width="100.000000pt" height="100.000000pt" viewBox="0 0 100.000000 100.000000"
 preserveAspectRatio="xMidYMid meet">
<metadata>
Created by potrace 1.11, written by Peter Selinger 2001-2013
</metadata>
<g transform="translate(0.000000,100.000000) scale(0.100000,-0.100000)"
fill="#000000" stroke="none">
<path d="M401 979 c-81 -16 -169 -65 -235 -132 -99 -98 -146 -210 -146 -347 0
-136 47 -249 144 -345 148 -148 359 -184 545 -92 180 88 293 303 264 503 -40
280 -299 467 -572 413z m129 -501 l-25 -10 25 -10 c25 -9 25 -10 5 -24 -66
-48 -76 -64 -69 -114 8 -59 -6 -87 -52 -106 -25 -11 -40 -12 -54 -4 -26 14
-26 46 1 60 11 6 19 19 17 29 -3 20 75 138 80 122 5 -16 22 -3 22 16 0 24 30
53 54 52 19 0 19 -1 -4 -11z m334 -23 l58 -7 -6 -41 c-18 -112 -129 -252 -238
-302 -109 -50 -247 -50 -355 0 -52 23 -79 55 -55 63 7 2 12 10 12 18 0 18 10
18 35 0 77 -53 193 2 196 94 0 14 3 19 6 13 9 -24 23 -13 23 17 0 43 18 37 22
-7 2 -20 8 -38 15 -40 7 -3 9 3 6 16 -3 12 -1 21 6 21 6 0 12 -15 12 -32 1
-20 3 -26 6 -14 4 14 7 16 13 6 5 -8 10 -2 15 19 6 26 2 37 -15 56 l-22 24 26
28 c14 15 26 31 26 34 0 14 41 -4 51 -22 5 -11 7 -19 4 -19 -4 0 -3 -5 0 -10
5 -8 11 -7 21 1 11 9 11 15 0 37 -12 23 -11 28 8 44 12 10 31 16 46 13 14 -2
51 -7 84 -10z"/>
</g>
</svg>
